<svg xmlns="http://www.w3.org/2000/svg" width="209.32" height="35" viewBox="0 0 209.32 35"><rect class="svg__rect" x="0" y="0" width="115.31" height="35" fill="#31C4F3"/><rect class="svg__rect" x="113.31" y="0" width="96.00999999999999" height="35" fill="#389AD5"/><path class="svg__text" d="M15.69 22L14.22 22L14.22 13.47L16.14 13.47L18.60 20.01L21.06 13.47L22.97 13.47L22.97 22L21.49 22L21.49 19.19L21.64 15.43L19.12 22L18.06 22L15.55 15.43L15.69 19.19L15.69 22ZM28.49 22L26.95 22L30.17 13.47L31.50 13.47L34.73 22L33.18 22L32.49 20.01L29.18 20.01L28.49 22ZM30.83 15.28L29.60 18.82L32.07 18.82L30.83 15.28ZM41.14 22L38.69 22L38.69 13.47L41.21 13.47Q42.34 13.47 43.21 13.97Q44.09 14.48 44.57 15.40Q45.05 16.33 45.05 17.52L45.05 17.52L45.05 17.95Q45.05 19.16 44.57 20.08Q44.08 21.00 43.19 21.50Q42.30 22 41.14 22L41.14 22ZM40.17 14.66L40.17 20.82L41.14 20.82Q42.30 20.82 42.93 20.09Q43.55 19.36 43.56 17.99L43.56 17.99L43.56 17.52Q43.56 16.13 42.96 15.40Q42.35 14.66 41.21 14.66L41.21 14.66L40.17 14.66ZM55.09 22L49.51 22L49.51 13.47L55.05 13.47L55.05 14.66L51.00 14.66L51.00 17.02L54.50 17.02L54.50 18.19L51.00 18.19L51.00 20.82L55.09 20.82L55.09 22ZM66.65 22L64.68 13.47L66.15 13.47L67.47 19.88L69.10 13.47L70.34 13.47L71.96 19.89L73.27 13.47L74.74 13.47L72.77 22L71.35 22L69.73 15.77L68.07 22L66.65 22ZM80.38 22L78.90 22L78.90 13.47L80.38 13.47L80.38 22ZM86.87 14.66L84.23 14.66L84.23 13.47L91.00 13.47L91.00 14.66L88.34 14.66L88.34 22L86.87 22L86.87 14.66ZM96.24 22L94.75 22L94.75 13.47L96.24 13.47L96.24 17.02L100.05 17.02L100.05 13.47L101.53 13.47L101.53 22L100.05 22L100.05 18.21L96.24 18.21L96.24 22Z" fill="#FFFFFF"/><path class="svg__text" d="M129.88 22L127.50 22L127.50 13.60L131.34 13.60Q132.48 13.60 133.32 13.98Q134.16 14.35 134.62 15.06Q135.07 15.76 135.07 16.71L135.07 16.71Q135.07 17.66 134.62 18.35Q134.16 19.05 133.32 19.42Q132.48 19.80 131.34 19.80L131.34 19.80L129.88 19.80L129.88 22ZM129.88 15.47L129.88 17.93L131.20 17.93Q131.93 17.93 132.30 17.61Q132.67 17.29 132.67 16.71L132.67 16.71Q132.67 16.12 132.30 15.80Q131.93 15.47 131.20 15.47L131.20 15.47L129.88 15.47ZM141.95 18.95L138.75 13.60L141.26 13.60L143.25 16.94L145.24 13.60L147.54 13.60L144.33 18.99L144.33 22L141.95 22L141.95 18.95ZM153.42 15.48L150.84 15.48L150.84 13.60L158.36 13.60L158.36 15.48L155.79 15.48L155.79 22L153.42 22L153.42 15.48ZM165.11 22L162.73 22L162.73 13.60L165.11 13.60L165.11 16.76L168.35 16.76L168.35 13.60L170.72 13.60L170.72 22L168.35 22L168.35 18.72L165.11 18.72L165.11 22ZM175.46 17.80L175.46 17.80Q175.46 16.55 176.06 15.55Q176.66 14.56 177.73 14.00Q178.79 13.43 180.12 13.43L180.12 13.43Q181.45 13.43 182.51 14.00Q183.58 14.56 184.18 15.55Q184.79 16.55 184.79 17.80L184.79 17.80Q184.79 19.05 184.18 20.04Q183.58 21.04 182.52 21.60Q181.46 22.17 180.12 22.17L180.12 22.17Q178.79 22.17 177.73 21.60Q176.66 21.04 176.06 20.04Q175.46 19.05 175.46 17.80ZM177.85 17.80L177.85 17.80Q177.85 18.51 178.16 19.05Q178.46 19.60 178.97 19.90Q179.49 20.20 180.12 20.20L180.12 20.20Q180.76 20.20 181.28 19.90Q181.79 19.60 182.09 19.05Q182.39 18.51 182.39 17.80L182.39 17.80Q182.39 17.09 182.09 16.54Q181.79 16 181.28 15.70Q180.76 15.40 180.12 15.40L180.12 15.40Q179.48 15.40 178.97 15.70Q178.46 16 178.16 16.54Q177.85 17.09 177.85 17.80ZM191.85 22L189.52 22L189.52 13.60L191.48 13.60L195.19 18.07L195.19 13.60L197.51 13.60L197.51 22L195.56 22L191.85 17.52L191.85 22Z" fill="#FFFFFF" x="126.31"/></svg>