<svg xmlns="http://www.w3.org/2000/svg" width="242.84" height="35" viewBox="0 0 242.84 35"><rect class="svg__rect" x="0" y="0" width="115.31" height="35" fill="#31C4F3"/><rect class="svg__rect" x="113.31" y="0" width="129.53" height="35" fill="#389AD5"/><path class="svg__text" d="M15.69 22L14.22 22L14.22 13.47L16.14 13.47L18.60 20.01L21.06 13.47L22.97 13.47L22.97 22L21.49 22L21.49 19.19L21.64 15.43L19.12 22L18.06 22L15.55 15.43L15.69 19.19L15.69 22ZM28.49 22L26.95 22L30.17 13.47L31.50 13.47L34.73 22L33.18 22L32.49 20.01L29.18 20.01L28.49 22ZM30.83 15.28L29.60 18.82L32.07 18.82L30.83 15.28ZM41.14 22L38.69 22L38.69 13.47L41.21 13.47Q42.34 13.47 43.21 13.97Q44.09 14.48 44.57 15.40Q45.05 16.33 45.05 17.52L45.05 17.52L45.05 17.95Q45.05 19.16 44.57 20.08Q44.08 21.00 43.19 21.50Q42.30 22 41.14 22L41.14 22ZM40.17 14.66L40.17 20.82L41.14 20.82Q42.30 20.82 42.93 20.09Q43.55 19.36 43.56 17.99L43.56 17.99L43.56 17.52Q43.56 16.13 42.96 15.40Q42.35 14.66 41.21 14.66L41.21 14.66L40.17 14.66ZM55.09 22L49.51 22L49.51 13.47L55.05 13.47L55.05 14.66L51.00 14.66L51.00 17.02L54.50 17.02L54.50 18.19L51.00 18.19L51.00 20.82L55.09 20.82L55.09 22ZM66.65 22L64.68 13.47L66.15 13.47L67.47 19.88L69.10 13.47L70.34 13.47L71.96 19.89L73.27 13.47L74.74 13.47L72.77 22L71.35 22L69.73 15.77L68.07 22L66.65 22ZM80.38 22L78.90 22L78.90 13.47L80.38 13.47L80.38 22ZM86.87 14.66L84.23 14.66L84.23 13.47L91.00 13.47L91.00 14.66L88.34 14.66L88.34 22L86.87 22L86.87 14.66ZM96.24 22L94.75 22L94.75 13.47L96.24 13.47L96.24 17.02L100.05 17.02L100.05 13.47L101.53 13.47L101.53 22L100.05 22L100.05 18.21L96.24 18.21L96.24 22Z" fill="#FFFFFF"/><path class="svg__text" d="M129.88 22L127.50 22L127.50 13.60L129.88 13.60L129.88 16.76L133.12 16.76L133.12 13.60L135.49 13.60L135.49 22L133.12 22L133.12 18.72L129.88 18.72L129.88 22ZM142.07 22L139.64 22L143.35 13.60L145.70 13.60L149.41 22L146.95 22L146.28 20.37L142.73 20.37L142.07 22ZM144.51 15.93L143.42 18.61L145.59 18.61L144.51 15.93ZM155.95 22L153.57 22L153.57 13.60L157.41 13.60Q158.55 13.60 159.39 13.98Q160.23 14.35 160.69 15.06Q161.14 15.76 161.14 16.71L161.14 16.71Q161.14 17.62 160.71 18.30Q160.29 18.98 159.50 19.36L159.50 19.36L161.31 22L158.76 22L157.24 19.77L155.95 19.77L155.95 22ZM155.95 15.47L155.95 17.93L157.26 17.93Q158.00 17.93 158.37 17.61Q158.74 17.29 158.74 16.71L158.74 16.71Q158.74 16.12 158.37 15.79Q158.00 15.47 157.26 15.47L157.26 15.47L155.95 15.47ZM169.90 22L165.93 22L165.93 13.60L169.90 13.60Q171.28 13.60 172.35 14.12Q173.42 14.63 174.01 15.58Q174.60 16.53 174.60 17.80L174.60 17.80Q174.60 19.07 174.01 20.02Q173.42 20.97 172.35 21.48Q171.28 22 169.90 22L169.90 22ZM168.31 15.50L168.31 20.10L169.81 20.10Q170.89 20.10 171.54 19.49Q172.19 18.88 172.19 17.80L172.19 17.80Q172.19 16.72 171.54 16.11Q170.89 15.50 169.81 15.50L169.81 15.50L168.31 15.50ZM178.74 21.24L178.74 21.24L179.52 19.49Q180.08 19.86 180.82 20.09Q181.57 20.32 182.29 20.32L182.29 20.32Q183.65 20.32 183.66 19.64L183.66 19.64Q183.66 19.28 183.27 19.11Q182.88 18.93 182.01 18.74L182.01 18.74Q181.06 18.53 180.43 18.30Q179.79 18.06 179.34 17.55Q178.88 17.03 178.88 16.16L178.88 16.16Q178.88 15.39 179.30 14.77Q179.72 14.15 180.56 13.79Q181.39 13.43 182.60 13.43L182.60 13.43Q183.43 13.43 184.23 13.62Q185.04 13.80 185.65 14.17L185.65 14.17L184.92 15.93Q183.72 15.28 182.59 15.28L182.59 15.28Q181.88 15.28 181.56 15.49Q181.23 15.70 181.23 16.04L181.23 16.04Q181.23 16.37 181.62 16.54Q182.00 16.71 182.85 16.89L182.85 16.89Q183.81 17.10 184.44 17.33Q185.07 17.56 185.53 18.07Q186.00 18.58 186.00 19.46L186.00 19.46Q186.00 20.21 185.58 20.83Q185.16 21.44 184.32 21.80Q183.48 22.17 182.28 22.17L182.28 22.17Q181.26 22.17 180.30 21.92Q179.34 21.67 178.74 21.24ZM192.37 15.48L189.78 15.48L189.78 13.60L197.31 13.60L197.31 15.48L194.74 15.48L194.74 22L192.37 22L192.37 15.48ZM203.80 18.95L200.60 13.60L203.11 13.60L205.10 16.94L207.09 13.60L209.39 13.60L206.18 18.99L206.18 22L203.80 22L203.80 18.95ZM219.87 22L213.48 22L213.48 13.60L215.86 13.60L215.86 20.11L219.87 20.11L219.87 22ZM231.03 22L224.28 22L224.28 13.60L230.87 13.60L230.87 15.44L226.64 15.44L226.64 16.85L230.37 16.85L230.37 18.63L226.64 18.63L226.64 20.17L231.03 20.17L231.03 22Z" fill="#FFFFFF" x="126.31"/></svg>